<svg xmlns="http://www.w3.org/2000/svg" width="16" height="20" fill="none"><path fill="#F05258" d="M6.835 12.774h2.33L8.53 9.318a1.7 1.7 0 0 0 .834-.606q.328-.435.328-.97 0-.686-.495-1.171A1.65 1.65 0 0 0 8 6.086q-.7 0-1.197.485-.495.485-.495 1.17 0 .537.328.97.33.435.834.607zM8 20q-3.444-1-5.722-4.083Q0 12.835 0 8.972V2.925L8 0l8 2.925v6.047q0 3.863-2.278 6.945T8 20m0-1.187q2.971-.922 4.914-3.69a10.46 10.46 0 0 0 1.943-6.151V3.688L8 1.193 1.143 3.688v5.284q0 3.383 1.943 6.15Q5.029 17.892 8 18.813"/></svg>