<svg width="25" height="24" viewBox="0 0 25 24" fill="none" xmlns="http://www.w3.org/2000/svg">
<mask id="mask0_999_322" style="mask-type:alpha" maskUnits="userSpaceOnUse" x="0" y="0" width="25" height="24">
<rect x="0.226227" width="24" height="24" fill="#D9D9D9"/>
</mask>
<g mask="url(#mask0_999_322)">
<path d="M19.3032 11.4615C19.1877 9.57567 18.4701 7.97283 17.1502 6.653C15.8304 5.333 14.2276 4.61533 12.3417 4.5V3.5C13.4251 3.55133 14.4388 3.792 15.383 4.222C16.3271 4.65217 17.1553 5.22333 17.8675 5.9355C18.5796 6.64767 19.1508 7.47592 19.581 8.42025C20.0111 9.36442 20.2519 10.3782 20.3032 11.4615H19.3032ZM15.3032 11.4615C15.1877 10.6923 14.8576 10.0321 14.3127 9.48075C13.7679 8.92942 13.1109 8.6025 12.3417 8.5V7.5C13.3917 7.6025 14.2856 8.02592 15.0232 8.77025C15.7611 9.51442 16.1877 10.4115 16.3032 11.4615H15.3032ZM19.157 20C17.4711 20 15.743 19.5779 13.9725 18.7337C12.202 17.8894 10.5539 16.7044 9.02823 15.1788C7.51539 13.6532 6.33681 12.0084 5.49248 10.2443C4.64831 8.48008 4.22623 6.75508 4.22623 5.06925C4.22623 4.76925 4.32623 4.516 4.52623 4.3095C4.72623 4.10317 4.97623 4 5.27623 4H7.74923C8.02106 4 8.25823 4.08558 8.46073 4.25675C8.66339 4.42792 8.80064 4.6475 8.87248 4.9155L9.36848 7.3C9.41464 7.5795 9.40631 7.82375 9.34348 8.03275C9.28064 8.24175 9.16973 8.41292 9.01073 8.54625L6.81673 10.5923C7.22689 11.3371 7.68039 12.0291 8.17723 12.6683C8.67406 13.3074 9.20389 13.9128 9.76673 14.4845C10.3474 15.0653 10.9724 15.6054 11.6417 16.1048C12.3109 16.6041 13.0455 17.0756 13.8455 17.5193L15.984 15.3422C16.1468 15.1666 16.3298 15.0509 16.533 14.9952C16.7361 14.9394 16.9608 14.9282 17.207 14.9615L19.3107 15.3923C19.5826 15.4589 19.8031 15.5958 19.9725 15.803C20.1416 16.01 20.2262 16.2475 20.2262 16.5155V18.95C20.2262 19.25 20.1231 19.5 19.9167 19.7C19.7102 19.9 19.457 20 19.157 20ZM6.34748 9.65375L8.26673 7.8885C8.33073 7.83717 8.37239 7.76667 8.39173 7.677C8.41089 7.58717 8.40764 7.50383 8.38198 7.427L7.93773 5.30775C7.91206 5.20508 7.86723 5.12817 7.80323 5.077C7.73906 5.02567 7.65573 5 7.55323 5H5.50123C5.42423 5 5.36014 5.02567 5.30898 5.077C5.25764 5.12817 5.23198 5.19225 5.23198 5.26925C5.25114 5.95258 5.35823 6.666 5.55323 7.4095C5.74806 8.15317 6.01281 8.90125 6.34748 9.65375ZM14.7975 17.9885C15.473 18.3232 16.1931 18.5706 16.958 18.7308C17.7226 18.8911 18.389 18.977 18.957 18.9885C19.034 18.9885 19.0981 18.9628 19.1492 18.9115C19.2006 18.8602 19.2262 18.7961 19.2262 18.7193V16.7115C19.2262 16.609 19.2006 16.5257 19.1492 16.4615C19.0981 16.3975 19.0211 16.3527 18.9185 16.327L17.0685 15.948C16.9916 15.9223 16.9244 15.9192 16.8667 15.9385C16.8089 15.9577 16.748 15.9993 16.684 16.0635L14.7975 17.9885Z" fill="#646464"/>
</g>
</svg>
